<?xml version="1.0" encoding="utf-8"?>
<!-- Generator: Adobe Illustrator 16.0.3, SVG Export Plug-In . SVG Version: 6.00 Build 0)  -->
<!DOCTYPE svg PUBLIC "-//W3C//DTD SVG 1.1//EN" "http://www.w3.org/Graphics/SVG/1.1/DTD/svg11.dtd">
<svg version="1.1" id="Layer_1" xmlns="http://www.w3.org/2000/svg" xmlns:xlink="http://www.w3.org/1999/xlink" x="0px" y="0px"
	 width="612px" height="792px" viewBox="-66 -192.5 612 792" enable-background="new -66 -192.5 612 792" xml:space="preserve">
<g>
	<g>
		<path fill="#D1D1D1" d="M187.042,325.668h-29.828c-4.138,0-7.523-3.467-7.523-7.7v-30.519c0-4.234,3.385-7.697,7.523-7.697h29.828
			c4.138,0,7.524,3.464,7.524,7.697v30.519C194.566,322.202,191.18,325.668,187.042,325.668z"/>
		<text transform="matrix(0.9578 0 0 1 165.2764 306.2881)" font-family="'Calibri'" font-size="14.2178">TX</text>
	</g>
	<g>
		<path id="KS" fill="#D1D1D1" d="M187.042,230.348h-29.828c-4.138,0-7.523-3.467-7.523-7.701v-30.517
			c0-4.235,3.385-7.699,7.523-7.699h29.828c4.138,0,7.524,3.465,7.524,7.699v30.517C194.566,226.882,191.18,230.348,187.042,230.348
			z"/>
		<text transform="matrix(0.9578 0 0 1 165.5225 211.3828)" font-family="'Calibri'" font-size="14.2178">KS</text>
	</g>
	<g>
		<path id="IA" fill="#DD684B" d="M234.125,135.813h-29.827c-4.138,0-7.524-3.466-7.524-7.699V97.595c0-4.235,3.388-7.7,7.524-7.7
			h29.827c4.139,0,7.525,3.466,7.525,7.7v30.519C241.65,132.347,238.262,135.813,234.125,135.813"/>
		<text transform="matrix(0.9578 0 0 1 213.5566 115.4873)" font-family="'Calibri'" font-size="14.2178">IA</text>
	</g>
	<g>
		<path id="MO" fill="#ECAA9A" d="M234.125,182.761h-29.827c-4.138,0-7.524-3.465-7.524-7.698v-30.519c0-4.235,3.388-7.7,7.524-7.7
			h29.827c4.139,0,7.525,3.466,7.525,7.7v30.519C241.65,179.295,238.262,182.761,234.125,182.761"/>
		<text transform="matrix(0.9578 0 0 1 208.8818 163.3809)" font-family="'Calibri'" font-size="14.2178">MO</text>
	</g>
	<g>
		<path id="AR" fill="#D1D1D1" d="M234.125,231.175h-29.827c-4.138,0-7.524-3.466-7.524-7.697V192.96
			c0-4.236,3.388-7.699,7.524-7.699h29.827c4.139,0,7.525,3.465,7.525,7.699v30.518C241.65,227.711,238.262,231.175,234.125,231.175
			"/>
		<text transform="matrix(0.9578 0 0 1 211.5742 211.2178)" font-family="'Calibri'" font-size="14.2178">AR</text>
	</g>
	<g>
		<path id="LA" fill="#D1D1D1" d="M234.125,278.33h-29.827c-4.138,0-7.524-3.466-7.524-7.701v-30.518
			c0-4.233,3.388-7.697,7.524-7.697h29.827c4.139,0,7.525,3.465,7.525,7.697v30.518C241.65,274.864,238.262,278.33,234.125,278.33"
			/>
		<text transform="matrix(0.9578 0 0 1 212.4102 258.9482)" font-family="'Calibri'" font-size="14.2178">LA</text>
	</g>
	<g>
		<path id="SD" fill="#D1D1D1" d="M187.042,136.285h-29.828c-4.138,0-7.523-3.466-7.523-7.699V98.067
			c0-4.235,3.385-7.701,7.523-7.701h29.828c4.138,0,7.524,3.467,7.524,7.701v30.519C194.566,132.819,191.18,136.285,187.042,136.285
			"/>
		<text transform="matrix(0.9578 0 0 1 164.8105 115.96)" font-family="'Calibri'" font-size="14.2178">SD</text>
	</g>
	<g>
		<path id="NE" fill="#D1D1D1" stroke="#F0F0F0" stroke-miterlimit="10" d="M187.042,182.761h-29.828
			c-4.138,0-7.523-3.465-7.523-7.698v-30.519c0-4.235,3.385-7.7,7.523-7.7h29.828c4.138,0,7.524,3.466,7.524,7.7v30.519
			C194.566,179.295,191.18,182.761,187.042,182.761"/>
		<text transform="matrix(0.9578 0 0 1 164.4082 163.3809)" font-family="'Calibri'" font-size="14.2178">NE</text>
	</g>
	<g>
		<path id="OK" fill="#ECAA9A" d="M187.042,278.33h-29.828c-4.138,0-7.523-3.466-7.523-7.701v-30.518
			c0-4.233,3.385-7.697,7.523-7.697h29.828c4.138,0,7.524,3.465,7.524,7.697v30.518C194.566,274.864,191.18,278.33,187.042,278.33"
			/>
		<text transform="matrix(0.9578 0 0 1 164.082 258.9482)" font-family="'Calibri'" font-size="14.2178">OK</text>
	</g>
	<g>
		<path id="WV" fill="#DD684B" d="M327.458,182.761h-29.827c-4.139,0-7.523-3.465-7.523-7.698v-30.519c0-4.235,3.388-7.7,7.523-7.7
			h29.827c4.14,0,7.524,3.466,7.524,7.7v30.519C334.982,179.295,331.598,182.761,327.458,182.761"/>
		<text transform="matrix(0.9578 0 0 1 302.6221 163.3809)" font-family="'Calibri'" font-size="14.2178">WV</text>
	</g>
	<g>
		<path id="MS" fill="#FBECE8" d="M280.686,278.33h-29.827c-4.14,0-7.526-3.466-7.526-7.701v-30.518
			c0-4.233,3.389-7.697,7.526-7.697h29.827c4.136,0,7.523,3.465,7.523,7.697v30.518C288.209,274.864,284.821,278.33,280.686,278.33"
			/>
		<text transform="matrix(0.9578 0 0 1 256.8213 258.9502)" font-family="'Calibri'" font-size="14.2178">MS</text>
	</g>
	<g>
		<path id="TN" fill="#DD684B" d="M280.686,231.508h-29.827c-4.14,0-7.526-3.465-7.526-7.699v-30.516
			c0-4.236,3.389-7.699,7.526-7.699h29.827c4.136,0,7.523,3.465,7.523,7.699v30.516
			C288.209,228.043,284.821,231.508,280.686,231.508"/>
		<text transform="matrix(0.9578 0 0 1 258.0586 211.6309)" font-family="'Calibri'" font-size="14.2178">TN</text>
	</g>
	<g>
		<path id="KY" fill="#DD684B" d="M280.686,182.761h-29.827c-4.14,0-7.526-3.465-7.526-7.698v-30.519c0-4.235,3.389-7.7,7.526-7.7
			h29.827c4.136,0,7.523,3.466,7.523,7.7v30.519C288.209,179.295,284.821,182.761,280.686,182.761"/>
		<text transform="matrix(0.9578 0 0 1 258.915 163.3809)" font-family="'Calibri'" font-size="14.2178">KY</text>
	</g>
	<g>
		<path id="IN" fill="#ECAA9A" d="M280.686,135.717h-29.827c-4.14,0-7.526-3.465-7.526-7.699V97.5c0-4.235,3.389-7.7,7.526-7.7
			h29.827c4.136,0,7.523,3.466,7.523,7.7v30.519C288.209,132.253,284.821,135.717,280.686,135.717"/>
		<text transform="matrix(0.9578 0 0 1 259.6602 115.8652)" font-family="'Calibri'" font-size="14.2178">IN</text>
	</g>
	<g>
		<path id="IL" fill="#ECAA9A" d="M280.686,88.718h-29.827c-4.14,0-7.526-3.466-7.526-7.698V50.501c0-4.235,3.389-7.7,7.526-7.7
			h29.827c4.136,0,7.523,3.466,7.523,7.7V81.02C288.209,85.252,284.821,88.718,280.686,88.718"/>
		<text transform="matrix(0.9578 0 0 1 261.4805 68.6689)" font-family="'Calibri'" font-size="14.2178">IL</text>
	</g>
	<g>
		<path id="MN" fill="#DD684B" d="M234.125,88.55h-29.827c-4.138,0-7.524-3.465-7.524-7.698V50.333c0-4.235,3.388-7.7,7.524-7.7
			h29.827c4.139,0,7.525,3.466,7.525,7.7v30.519C241.65,85.086,238.262,88.55,234.125,88.55"/>
		<text transform="matrix(0.9578 0 0 1 208.9951 68.167)" font-family="'Calibri'" font-size="14.2178">MN</text>
	</g>
	<g>
		<path id="SC" fill="#DD684B" d="M374.174,231.344h-29.826c-4.141,0-7.526-3.467-7.526-7.699v-30.519
			c0-4.235,3.388-7.699,7.526-7.699h29.826c4.139,0,7.523,3.465,7.523,7.699v30.519
			C381.697,227.877,378.313,231.344,374.174,231.344"/>
		<text transform="matrix(0.9578 0 0 1 352.501 211.4658)" font-family="'Calibri'" font-size="14.2178">SC</text>
	</g>
	<g>
		<path id="OH" fill="#DD684B" d="M327.458,136.379h-29.827c-4.139,0-7.523-3.465-7.523-7.699V98.161
			c0-4.235,3.388-7.701,7.523-7.701h29.827c4.14,0,7.524,3.467,7.524,7.701v30.519C334.982,132.915,331.598,136.379,327.458,136.379
			"/>
		<text transform="matrix(0.9578 0 0 1 303.793 116.0537)" font-family="'Calibri'" font-size="14.2178">OH</text>
	</g>
	<g>
		<path id="MI" fill="#ECAA9A" d="M327.458,88.382h-29.827c-4.139,0-7.523-3.465-7.523-7.698V50.166c0-4.235,3.388-7.7,7.523-7.7
			h29.827c4.14,0,7.524,3.466,7.524,7.7v30.519C334.982,84.918,331.598,88.382,327.458,88.382"/>
		<text transform="matrix(0.9578 0 0 1 305.0078 68.334)" font-family="'Calibri'" font-size="14.2178">MI</text>
	</g>
	<g>
		<path id="WI" fill="#ECAA9A" d="M280.686,40.836h-29.827c-4.14,0-7.526-3.465-7.526-7.698V2.621c0-4.235,3.389-7.7,7.526-7.7
			h29.827c4.136,0,7.523,3.466,7.523,7.7V33.14C288.209,37.373,284.821,40.836,280.686,40.836"/>
		<text transform="matrix(0.9578 0 0 1 257.9971 20.8887)" font-family="'Calibri'" font-size="14.2178">WI</text>
	</g>
	<g>
		<path id="AL" fill="#ECAA9A" d="M327.458,278.33h-29.827c-4.139,0-7.523-3.466-7.523-7.701v-30.518
			c0-4.233,3.388-7.697,7.523-7.697h29.827c4.14,0,7.524,3.465,7.524,7.697v30.518C334.982,274.864,331.598,278.33,327.458,278.33"
			/>
		<text transform="matrix(0.9578 0 0 1 305.7402 258.9482)" font-family="'Calibri'" font-size="14.2178">AL</text>
	</g>
	<g>
		<path id="NC" fill="#DD684B" d="M327.458,231.426h-29.827c-4.139,0-7.523-3.467-7.523-7.698v-30.519
			c0-4.236,3.388-7.699,7.523-7.699h29.827c4.14,0,7.524,3.465,7.524,7.699v30.519C334.982,227.961,331.598,231.426,327.458,231.426
			"/>
		<text transform="matrix(0.9578 0 0 1 304.5176 211.5498)" font-family="'Calibri'" font-size="14.2178">NC</text>
	</g>
	<g>
		<path id="DC" fill="#DD684B" d="M420.668,231.592h-29.827c-4.139,0-7.524-3.467-7.524-7.701v-30.517
			c0-4.235,3.387-7.699,7.524-7.699h29.827c4.139,0,7.524,3.465,7.524,7.699v30.517
			C428.192,228.126,424.807,231.592,420.668,231.592z"/>
		<text transform="matrix(0.9578 0 0 1 397.9336 213.2998)" font-family="'Calibri'" font-size="14.2178">DC</text>
	</g>
	<g>
		<path id="GA" fill="#DD684B" d="M374.174,278.33h-29.826c-4.141,0-7.526-3.466-7.526-7.701v-30.518
			c0-4.233,3.388-7.697,7.526-7.697h29.826c4.139,0,7.523,3.465,7.523,7.697v30.518C381.697,274.864,378.313,278.33,374.174,278.33z
			"/>
		<text transform="matrix(0.9578 0 0 1 351.0254 258.9502)" font-family="'Calibri'" font-size="14.2178">GA</text>
	</g>
	<g>
		<path id="PA" fill="#ECAA9A" d="M374.174,135.53h-29.826c-4.141,0-7.526-3.465-7.526-7.699V97.313
			c0-4.236,3.388-7.701,7.526-7.701h29.826c4.139,0,7.523,3.466,7.523,7.701v30.518C381.697,132.064,378.313,135.53,374.174,135.53"
			/>
		<text transform="matrix(0.9578 0 0 1 352.3047 115.3926)" font-family="'Calibri'" font-size="14.2178">PA</text>
	</g>
	<g>
		<path id="VA" fill="#D1D1D1" d="M374.174,182.761h-29.826c-4.141,0-7.526-3.465-7.526-7.698v-30.519c0-4.235,3.388-7.7,7.526-7.7
			h29.826c4.139,0,7.523,3.466,7.523,7.7v30.519C381.697,179.295,378.313,182.761,374.174,182.761"/>
		<text transform="matrix(0.9578 0 0 1 351.7754 164.3809)" font-family="'Calibri'" font-size="14.2178">VA</text>
	</g>
	<g>
		<path fill="#D1D1D1" d="M420.668,325.668h-29.827c-4.139,0-7.524-3.467-7.524-7.7v-30.519c0-4.234,3.387-7.697,7.524-7.697h29.827
			c4.139,0,7.524,3.464,7.524,7.697v30.519C428.192,322.202,424.807,325.668,420.668,325.668"/>
		<text transform="matrix(0.9578 0 0 1 399.7627 306.2881)" font-family="'Calibri'" font-size="14.2178">FL</text>
	</g>
	<g>
		<path id="MD" fill="#DD684B" d="M420.668,182.761h-29.827c-4.139,0-7.524-3.465-7.524-7.698v-30.519c0-4.235,3.387-7.7,7.524-7.7
			h29.827c4.139,0,7.524,3.466,7.524,7.7v30.519C428.192,179.295,424.807,182.761,420.668,182.761"/>
		<text transform="matrix(0.9578 0 0 1 395.7432 163.3809)" font-family="'Calibri'" font-size="14.2178">MD</text>
	</g>
	<g>
		<path id="NJ" fill="#DD684B" d="M420.668,134.395h-29.827c-4.139,0-7.524-3.465-7.524-7.699V96.177c0-4.236,3.387-7.7,7.524-7.7
			h29.827c4.139,0,7.524,3.465,7.524,7.7v30.519C428.192,130.932,424.807,134.395,420.668,134.395"/>
		<text transform="matrix(0.9578 0 0 1 399.1885 115.582)" font-family="'Calibri'" font-size="14.2178">NJ</text>
	</g>
	<g>
		<path id="NM" fill="#DD684B" d="M140.277,231.095H110.45c-4.139,0-7.524-3.466-7.524-7.699v-30.519
			c0-4.235,3.386-7.699,7.524-7.699h29.827c4.138,0,7.524,3.465,7.524,7.699v30.519
			C147.801,227.629,144.415,231.095,140.277,231.095z"/>
		<text transform="matrix(0.9578 0 0 1 115.1475 211.0508)" font-family="'Calibri'" font-size="14.2178">NM</text>
	</g>
	<g>
		<path id="ME" fill="#DD684B" d="M515.608-7.741h-29.827c-4.139,0-7.524-3.466-7.524-7.699v-30.517
			c0-4.234,3.388-7.699,7.524-7.699h29.827c4.139,0,7.524,3.465,7.524,7.699v30.518C523.133-11.206,519.747-7.741,515.608-7.741"/>
		<text transform="matrix(0.9578 0 0 1 491.5488 -27.1201)" font-family="'Calibri'" font-size="14.2178">ME</text>
	</g>
	<g>
		<path id="NH" fill="#ECAA9A" d="M515.608,39.414h-29.827c-4.139,0-7.524-3.465-7.524-7.697V1.2c0-4.236,3.388-7.701,7.524-7.701
			h29.827c4.139,0,7.524,3.466,7.524,7.701v30.518C523.133,35.951,519.747,39.414,515.608,39.414z"/>
		<text transform="matrix(0.9578 0 0 1 492.0596 20.3193)" font-family="'Calibri'" font-size="14.2178">NH</text>
	</g>
	<g>
		<path id="VT" fill="#DD684B" d="M468.259,40.552h-29.828c-4.139,0-7.524-3.465-7.524-7.697V2.335c0-4.236,3.387-7.701,7.524-7.701
			h29.828c4.138,0,7.524,3.466,7.524,7.701v30.519C475.783,37.088,472.396,40.552,468.259,40.552"/>
		<text transform="matrix(0.9578 0 0 1 446.1631 20.6045)" font-family="'Calibri'" font-size="14.2178">VT</text>
	</g>
	<g>
		<path id="RI" fill="#DD684B" d="M515.608,136.474h-29.827c-4.139,0-7.524-3.465-7.524-7.699V98.256c0-4.235,3.388-7.7,7.524-7.7
			h29.827c4.139,0,7.524,3.466,7.524,7.7v30.519C523.133,133.009,519.747,136.474,515.608,136.474"/>
		<text transform="matrix(0.9578 0 0 1 495.2832 115.6758)" font-family="'Calibri'" font-size="14.2178">RI</text>
	</g>
	<g>
		<path id="MA" fill="#D1D1D1" d="M468.259,88.216h-29.828c-4.139,0-7.524-3.465-7.524-7.698V49.999c0-4.235,3.387-7.7,7.524-7.7
			h29.828c4.138,0,7.524,3.467,7.524,7.7v30.519C475.783,84.751,472.396,88.216,468.259,88.216"/>
		<text transform="matrix(0.9578 0 0 1 443.583 69.3301)" font-family="'Calibri'" font-size="14.2178">MA</text>
	</g>
	<g>
		<path id="NY" fill="#ECAA9A" d="M420.668,86.542h-29.827c-4.139,0-7.524-3.465-7.524-7.698V48.326
			c0-4.236,3.387-7.701,7.524-7.701h29.827c4.139,0,7.524,3.466,7.524,7.701v30.518C428.192,83.077,424.807,86.542,420.668,86.542"
			/>
		<text transform="matrix(0.9578 0 0 1 398.041 67.999)" font-family="'Calibri'" font-size="14.2178">NY</text>
	</g>
	<g>
		<path id="DE" fill="#DD684B" d="M468.259,182.761h-29.828c-4.139,0-7.524-3.465-7.524-7.698v-30.519c0-4.235,3.387-7.7,7.524-7.7
			h29.828c4.138,0,7.524,3.466,7.524,7.7v30.519C475.783,179.295,472.396,182.761,468.259,182.761z"/>
		<text transform="matrix(0.9578 0 0 1 445.8301 163.3809)" font-family="'Calibri'" font-size="14.2178">DE</text>
	</g>
	<g>
		<path id="CT" fill="#ECAA9A" d="M468.259,135.623h-29.828c-4.139,0-7.524-3.465-7.524-7.699V97.406c0-4.235,3.387-7.7,7.524-7.7
			h29.828c4.138,0,7.524,3.466,7.524,7.7v30.519C475.783,132.158,472.396,135.623,468.259,135.623"/>
		<text transform="matrix(0.9578 0 0 1 446.3633 115.2988)" font-family="'Calibri'" font-size="14.2178">CT</text>
	</g>
	<g>
		<path id="ID" fill="#D1D1D1" d="M94.083,89.219H64.255c-4.138,0-7.524-3.464-7.524-7.697V51.003c0-4.235,3.386-7.7,7.524-7.7
			h29.828c4.138,0,7.524,3.466,7.524,7.7v30.519C101.607,85.755,98.221,89.219,94.083,89.219"/>
		<text transform="matrix(0.9578 0 0 1 73.2637 67.4971)" font-family="'Calibri'" font-size="14.2178">ID</text>
	</g>
	<g>
		<path id="MT" fill="#DD684B" d="M140.277,88.884H110.45c-4.139,0-7.524-3.465-7.524-7.698V50.667c0-4.235,3.386-7.7,7.524-7.7
			h29.827c4.138,0,7.524,3.466,7.524,7.7v30.519C147.801,85.42,144.415,88.884,140.277,88.884"/>
		<text transform="matrix(0.9578 0 0 1 116.2246 67.665)" font-family="'Calibri'" font-size="14.2178">MT</text>
	</g>
	<g>
		<path id="NV" fill="#DD684B" d="M94.083,136.095H64.255c-4.138,0-7.524-3.465-7.524-7.699V97.878c0-4.235,3.386-7.7,7.524-7.7
			h29.828c4.138,0,7.524,3.466,7.524,7.7v30.519C101.607,132.63,98.221,136.095,94.083,136.095"/>
		<text transform="matrix(0.9578 0 0 1 70.9102 115.7705)" font-family="'Calibri'" font-size="14.2178">NV</text>
	</g>
	<g>
		<path id="AZ" fill="#D1D1D1" d="M94.083,231.26H64.255c-4.138,0-7.524-3.467-7.524-7.699v-30.518c0-4.236,3.386-7.699,7.524-7.699
			h29.828c4.138,0,7.524,3.465,7.524,7.699v30.518C101.607,227.795,98.221,231.26,94.083,231.26"/>
		<text transform="matrix(0.9578 0 0 1 72.041 211.1338)" font-family="'Calibri'" font-size="14.2178">AZ</text>
	</g>
	<g>
		<path id="UT" fill="#DD684B" d="M94.083,182.761H64.255c-4.138,0-7.524-3.465-7.524-7.698v-30.519c0-4.235,3.386-7.7,7.524-7.7
			h29.828c4.138,0,7.524,3.466,7.524,7.7v30.519C101.607,179.295,98.221,182.761,94.083,182.761"/>
		<text transform="matrix(0.9578 0 0 1 71.4824 163.3809)" font-family="'Calibri'" font-size="14.2178">UT</text>
	</g>
	<g>
		<path id="WY" fill="#D1D1D1" d="M140.277,135.907H110.45c-4.139,0-7.524-3.465-7.524-7.699V97.688c0-4.235,3.386-7.7,7.524-7.7
			h29.827c4.138,0,7.524,3.467,7.524,7.7v30.519C147.801,132.443,144.415,135.907,140.277,135.907"/>
		<text transform="matrix(0.9578 0 0 1 115.9883 115.1094)" font-family="'Calibri'" font-size="14.2178">WY</text>
	</g>
	<g>
		<path id="CO" fill="#D1D1D1" d="M140.277,182.761H110.45c-4.139,0-7.524-3.465-7.524-7.698v-30.519c0-4.235,3.386-7.7,7.524-7.7
			h29.827c4.138,0,7.524,3.466,7.524,7.7v30.519C147.801,179.295,144.415,182.761,140.277,182.761"/>
		<text transform="matrix(0.9578 0 0 1 117.2852 163.3809)" font-family="'Calibri'" font-size="14.2178">CO</text>
	</g>
	<g>
		<path id="HI" fill="#DD684B" d="M1.091,325.668h-29.827c-4.138,0-7.524-3.467-7.524-7.7v-30.519c0-4.234,3.386-7.697,7.524-7.697
			H1.091c4.138,0,7.524,3.464,7.524,7.697v30.519C8.615,322.202,5.229,325.668,1.091,325.668"/>
		<text transform="matrix(0.9578 0 0 1 -20.2227 306.2881)" font-family="'Calibri'" font-size="14.2178">HI</text>
	</g>
	<g>
		<path id="WA" fill="#ECAA9A" d="M46.993,89.052H17.166c-4.138,0-7.525-3.465-7.525-7.698V50.835c0-4.235,3.387-7.7,7.525-7.7
			h29.827c4.138,0,7.524,3.466,7.524,7.7v30.519C54.517,85.588,51.131,89.052,46.993,89.052"/>
		<text transform="matrix(0.9578 0 0 1 22.3916 67.833)" font-family="'Calibri'" font-size="14.2178">WA</text>
	</g>
	<g>
		<path id="OR" fill="#DD684B" d="M46.993,136.001H17.166c-4.138,0-7.525-3.465-7.525-7.699V97.784c0-4.235,3.387-7.7,7.525-7.7
			h29.827c4.138,0,7.524,3.466,7.524,7.7v30.519C54.517,132.537,51.131,136.001,46.993,136.001"/>
		<text transform="matrix(0.9578 0 0 1 23.874 115.2041)" font-family="'Calibri'" font-size="14.2178">OR</text>
	</g>
	<g>
		<path id="CA" fill="#DD684B" d="M46.993,182.761H17.166c-4.138,0-7.525-3.465-7.525-7.698v-30.519c0-4.235,3.387-7.7,7.525-7.7
			h29.827c4.138,0,7.524,3.466,7.524,7.7v30.519C54.517,179.295,51.131,182.761,46.993,182.761"/>
		<text transform="matrix(0.9578 0 0 1 24.5088 163.3809)" font-family="'Calibri'" font-size="14.2178">CA</text>
	</g>
	<g>
		<path id="AK" fill="#D1D1D1" d="M48.063,325.668H18.236c-4.138,0-7.524-3.467-7.524-7.7v-30.519c0-4.234,3.386-7.697,7.524-7.697
			h29.827c4.138,0,7.525,3.464,7.525,7.697v30.519C55.587,322.202,52.201,325.668,48.063,325.668"/>
		<text transform="matrix(0.9578 0 0 1 24.2354 306.2881)" font-family="'Calibri'" font-size="14.2178">AK</text>
	</g>
	<g>
		<path id="ND" fill="#FBECE8" d="M187.042,89.387h-29.828c-4.138,0-7.523-3.466-7.523-7.699V51.169c0-4.235,3.388-7.7,7.523-7.7
			h29.828c4.138,0,7.524,3.466,7.524,7.7v30.519C194.566,85.92,191.18,89.387,187.042,89.387"/>
		<text transform="matrix(0.9578 0 0 1 163.5439 68.502)" font-family="'Calibri'" font-size="14.2178">ND</text>
	</g>
</g>
<g>
	<path fill="#DD684B" d="M13.898,371.661c0,4.247-3.078,7.724-6.84,7.724h-20.441c-3.762,0-6.84-3.477-6.84-7.724v-7.724
		c0-4.248,3.078-7.725,6.84-7.725H7.06c3.762,0,6.84,3.477,6.84,7.725L13.898,371.661L13.898,371.661z"/>
</g>
<g>
	<path fill="#ECAA9A" d="M13.898,402.441c0,4.248-3.078,7.724-6.84,7.724h-20.441c-3.762,0-6.84-3.476-6.84-7.724v-6.808
		c0-4.248,3.078-7.723,6.84-7.723H7.06c3.762,0,6.84,3.475,6.84,7.723L13.898,402.441L13.898,402.441z"/>
</g>
<text transform="matrix(0.8856 0 0 1 24.9189 372.6846)" font-family="'MicrosoftTaiLe'" font-size="16.9916">Both Required</text>
<text transform="matrix(0.8856 0 0 1 24.0078 437.1602)" font-family="'MicrosoftTaiLe'" font-size="16.9916">Sex Education Required</text>
<g>
	<path fill="#FBECE8" d="M13.898,433.562c0,4.248-3.078,7.724-6.84,7.724h-20.441c-3.762,0-6.84-3.476-6.84-7.724v-6.808
		c0-4.248,3.078-7.724,6.84-7.724H7.06c3.762,0,6.84,3.476,6.84,7.724L13.898,433.562L13.898,433.562z"/>
</g>
<text transform="matrix(0.8856 0 0 1 24.4639 406.04)" font-family="'MicrosoftTaiLe'" font-size="16.9916">HIV Education Required</text>
<g>
	<path fill="#D1D1D1" d="M13.898,466c0,4.248-3.078,7.725-6.84,7.725h-20.441c-3.762,0-6.84-3.477-6.84-7.725v-6.807
		c0-4.248,3.078-7.725,6.84-7.725H7.06c3.762,0,6.84,3.477,6.84,7.725L13.898,466L13.898,466z"/>
</g>
<text transform="matrix(0.8856 0 0 1 25.5234 468.624)" font-family="'MicrosoftTaiLe'" font-size="16.9916">Neither Required</text>
</svg>
