<?xml version="1.0" encoding="utf-8"?>
<!-- Generator: Adobe Illustrator 16.0.4, SVG Export Plug-In . SVG Version: 6.00 Build 0)  -->
<!DOCTYPE svg PUBLIC "-//W3C//DTD SVG 1.1//EN" "http://www.w3.org/Graphics/SVG/1.1/DTD/svg11.dtd">
<svg version="1.1" id="Capa_1" xmlns="http://www.w3.org/2000/svg" xmlns:xlink="http://www.w3.org/1999/xlink" x="0px" y="0px"
	 width="200px" height="200px" viewBox="0 0 200 200" enable-background="new 0 0 200 200" xml:space="preserve">
<g>
	<path fill="#62BFED" d="M100.008,44.934c-2.818,0-5.105,2.277-5.105,5.095c0,2.811,2.283,5.087,5.101,5.087
		c2.803,0,5.082-2.276,5.082-5.087C105.093,47.21,102.814,44.934,100.008,44.934z M108.427,60.413
		c-1.248-2.555-3.187-4.104-7.939-4.104h-0.487h-0.487c-4.752,0-6.692,1.553-7.938,4.104c-0.627,1.274-1.941,17.243-1.941,17.243
		c-0.1,0.945,0.583,1.789,1.522,1.886c0.06,0.004,0.121,0.004,0.186,0.004c0.867,0,1.61-0.652,1.697-1.53l1.338-13.873l0.332,10.77
		l-0.979,27.837c-0.073,1.098,0.755,2.057,1.855,2.126c0.059,0.009,0.103,0.009,0.139,0.009c1.049,0,1.926-0.804,2.006-1.857
		l2.268-22.926l2.264,22.926c0.085,1.054,0.962,1.857,2.015,1.857c0.039,0,0.08,0,0.142-0.009c1.092-0.071,1.92-1.028,1.849-2.126
		l-0.977-27.837l0.328-10.77l1.343,13.873c0.085,0.878,0.836,1.53,1.701,1.53c0.062,0,0.118,0,0.185-0.009
		c0.94-0.093,1.618-0.936,1.518-1.881C110.361,77.655,109.048,61.687,108.427,60.413z"/>
</g>
<g>
	<g>
		<path fill="#62BFED" d="M71.109,134.305H64.59v-4.841c1.54-1.375,2.414-3.315,2.414-5.396c0-3.994-3.25-7.244-7.243-7.244
			c-3.993,0-7.243,3.25-7.243,7.244c0,2.08,0.875,4.021,2.415,5.396v4.841h-6.519c-1.997,0-3.621,1.622-3.621,3.62
			s1.625,3.621,3.621,3.621h2.656v4.83c0,4.791,3.899,8.688,8.691,8.688s8.692-3.897,8.692-8.688v-4.83h2.656
			c1.997,0,3.622-1.623,3.622-3.621S73.106,134.305,71.109,134.305z M54.45,124.066c0-2.93,2.382-5.312,5.311-5.312
			c2.929,0,5.312,2.384,5.312,5.312c0,1.646-0.744,3.17-2.044,4.185c-0.233,0.185-0.371,0.465-0.371,0.763v5.291h-5.794v-5.291
			c0-0.298-0.137-0.578-0.371-0.763C55.194,127.236,54.45,125.712,54.45,124.066z M66.521,146.376c0,3.728-3.032,6.758-6.76,6.758
			c-3.727,0-6.76-3.03-6.76-6.758v-4.83h1.932v4.83c0,2.662,2.167,4.828,4.829,4.828c2.663,0,4.829-2.166,4.829-4.828v-4.83h1.931
			L66.521,146.376L66.521,146.376z M56.864,146.376v-4.83h5.794v4.83c0,1.597-1.3,2.896-2.897,2.896
			C58.164,149.271,56.864,147.973,56.864,146.376z M71.109,139.613H48.414c-0.932,0-1.69-0.758-1.69-1.688s0.758-1.688,1.69-1.688
			h22.695c0.932,0,1.689,0.758,1.689,1.688S72.04,139.613,71.109,139.613z"/>
	</g>
</g>
<g>
	<g>
		<path fill="#62BFED" d="M111.346,134.305h-6.518v-4.841c1.541-1.375,2.414-3.315,2.414-5.396c0-3.996-3.25-7.244-7.243-7.244
			c-3.994,0-7.243,3.248-7.243,7.244c0,2.08,0.874,4.021,2.414,5.396v4.841h-6.519c-1.996,0-3.621,1.622-3.621,3.62
			c0,1.996,1.625,3.621,3.621,3.621h2.656v4.828c0,4.793,3.899,8.69,8.692,8.69s8.692-3.897,8.692-8.69v-4.828h2.653
			c1.998,0,3.623-1.625,3.623-3.621C114.969,135.927,113.344,134.305,111.346,134.305z M94.689,124.066
			c0-2.93,2.382-5.312,5.312-5.312c2.929,0,5.312,2.384,5.312,5.312c0,1.644-0.744,3.168-2.045,4.185
			c-0.232,0.185-0.369,0.465-0.369,0.763v5.291h-5.794v-5.291c0-0.298-0.137-0.578-0.37-0.763
			C95.433,127.234,94.689,125.71,94.689,124.066z M106.76,146.374c0,3.729-3.033,6.76-6.76,6.76c-3.728,0-6.76-3.03-6.76-6.76
			v-4.828h1.931v4.828c0,2.664,2.167,4.83,4.829,4.83s4.829-2.166,4.829-4.83v-4.828h1.932L106.76,146.374L106.76,146.374z
			 M97.103,146.374v-4.828h5.793v4.828c0,1.599-1.3,2.897-2.896,2.897C98.402,149.271,97.103,147.973,97.103,146.374z
			 M111.346,139.613H88.652c-0.932,0-1.69-0.758-1.69-1.688s0.758-1.688,1.69-1.688h22.694c0.934,0,1.691,0.758,1.691,1.688
			S112.279,139.613,111.346,139.613z"/>
	</g>
</g>
<g>
	<g>
		<path fill="#62BFED" d="M151.587,134.305h-6.521v-4.841c1.541-1.375,2.416-3.315,2.416-5.396c0-3.994-3.25-7.244-7.244-7.244
			s-7.241,3.25-7.241,7.244c0,2.08,0.872,4.021,2.413,5.396v4.841h-6.52c-1.996,0-3.621,1.622-3.621,3.62s1.625,3.621,3.621,3.621
			h2.656v4.83c0,4.791,3.898,8.688,8.691,8.688s8.692-3.897,8.692-8.688v-4.83h2.654c1.998,0,3.621-1.623,3.621-3.621
			S153.585,134.305,151.587,134.305z M134.928,124.066c0-2.93,2.383-5.312,5.311-5.312c2.931,0,5.312,2.384,5.312,5.312
			c0,1.646-0.744,3.17-2.045,4.185c-0.232,0.185-0.371,0.465-0.371,0.763v5.291h-5.793v-5.291c0-0.298-0.137-0.578-0.371-0.763
			C135.673,127.236,134.928,125.712,134.928,124.066z M147.001,146.376c0,3.728-3.033,6.758-6.763,6.758
			c-3.727,0-6.76-3.03-6.76-6.758v-4.83h1.932v4.83c0,2.662,2.166,4.828,4.828,4.828s4.828-2.166,4.828-4.828v-4.83h1.935V146.376z
			 M137.342,146.376v-4.83h5.793v4.83c0,1.597-1.299,2.896-2.896,2.896C138.643,149.271,137.342,147.973,137.342,146.376z
			 M151.587,139.613h-22.696c-0.932,0-1.689-0.758-1.689-1.688s0.759-1.688,1.689-1.688h22.695c0.932,0,1.689,0.758,1.689,1.688
			S152.518,139.613,151.587,139.613z"/>
	</g>
</g>
</svg>
