<?xml version="1.0" encoding="utf-8"?>
<!-- Generator: Adobe Illustrator 16.0.4, SVG Export Plug-In . SVG Version: 6.00 Build 0)  -->
<!DOCTYPE svg PUBLIC "-//W3C//DTD SVG 1.1//EN" "http://www.w3.org/Graphics/SVG/1.1/DTD/svg11.dtd">
<svg version="1.1" id="Capa_1" xmlns="http://www.w3.org/2000/svg" xmlns:xlink="http://www.w3.org/1999/xlink" x="0px" y="0px"
	 width="200px" height="200px" viewBox="0 0 200 200" enable-background="new 0 0 200 200" xml:space="preserve">
<g>
	<path fill="#5DD892" d="M99.497,44.934c-2.104,0-3.813,1.69-3.813,3.782c0,2.086,1.706,3.775,3.813,3.775
		c2.094,0,3.796-1.689,3.796-3.775C103.297,46.624,101.595,44.934,99.497,44.934z M105.788,56.423
		c-0.932-1.896-2.381-3.046-5.931-3.046h-0.364H99.13c-3.55,0-4.999,1.153-5.931,3.046c-0.469,0.946-1.45,12.799-1.45,12.799
		c-0.075,0.701,0.435,1.328,1.136,1.399c0.045,0.003,0.09,0.003,0.139,0.003c0.648,0,1.202-0.483,1.268-1.135l1-10.298l0.248,7.994
		l-0.731,20.662c-0.054,0.815,0.564,1.526,1.386,1.578c0.044,0.007,0.077,0.007,0.104,0.007c0.784,0,1.44-0.597,1.5-1.379
		l1.695-17.017l1.691,17.017c0.064,0.782,0.72,1.379,1.505,1.379c0.03,0,0.061,0,0.107-0.007c0.816-0.053,1.434-0.763,1.381-1.578
		l-0.729-20.662l0.245-7.994l1.003,10.298c0.064,0.651,0.625,1.135,1.271,1.135c0.047,0,0.089,0,0.14-0.006
		c0.701-0.069,1.209-0.695,1.136-1.396C107.233,69.222,106.25,57.369,105.788,56.423z"/>
</g>
<g>
	<g>
		<path fill="#5DD892" d="M64.458,111.269h-4.871v-3.592c1.15-1.021,1.804-2.462,1.804-4.005c0-2.965-2.428-5.377-5.413-5.377
			c-2.982,0-5.411,2.412-5.411,5.377c0,1.543,0.654,2.984,1.804,4.005v3.592H47.5c-1.491,0-2.705,1.205-2.705,2.688
			c0,1.482,1.214,2.688,2.705,2.688h1.985v3.585c0,3.557,2.912,6.45,6.493,6.45c3.58,0,6.493-2.894,6.493-6.45v-3.585h1.983
			c1.492,0,2.706-1.205,2.706-2.688C67.16,112.474,65.95,111.269,64.458,111.269z M52.011,103.671c0-2.174,1.78-3.944,3.969-3.944
			s3.969,1.771,3.969,3.944c0,1.221-0.555,2.354-1.527,3.105c-0.173,0.137-0.276,0.345-0.276,0.565v3.927h-4.33v-3.927
			c0-0.221-0.103-0.429-0.277-0.565C52.567,106.024,52.011,104.892,52.011,103.671z M61.031,120.229
			c0,2.766-2.266,5.016-5.051,5.016s-5.052-2.25-5.052-5.016v-3.585h1.444v3.585c0,1.976,1.619,3.584,3.608,3.584
			c1.989,0,3.607-1.608,3.607-3.584v-3.585h1.444V120.229z M53.814,120.229v-3.585h4.33v3.585c0,1.185-0.972,2.15-2.164,2.15
			C54.789,122.38,53.814,121.414,53.814,120.229z M64.458,115.211H47.501c-0.696,0-1.262-0.562-1.262-1.254
			c0-0.69,0.567-1.254,1.262-1.254h16.956c0.697,0,1.261,0.564,1.261,1.254C65.719,114.648,65.153,115.211,64.458,115.211z"/>
	</g>
</g>
<g>
	<g>
		<path fill="#5DD892" d="M93.805,111.269h-4.87v-3.592c1.151-1.021,1.803-2.462,1.803-4.005c0-2.966-2.426-5.377-5.41-5.377
			s-5.412,2.411-5.412,5.377c0,1.543,0.654,2.984,1.804,4.005v3.592h-4.871c-1.491,0-2.706,1.205-2.706,2.688
			c0,1.481,1.214,2.688,2.706,2.688h1.984v3.584c0,3.558,2.911,6.451,6.492,6.451s6.493-2.894,6.493-6.451v-3.584h1.983
			c1.493,0,2.707-1.206,2.707-2.688C96.512,112.474,95.297,111.269,93.805,111.269z M81.359,103.671c0-2.174,1.78-3.944,3.969-3.944
			c2.188,0,3.969,1.771,3.969,3.944c0,1.22-0.556,2.352-1.528,3.105c-0.172,0.137-0.275,0.345-0.275,0.565v3.927h-4.329v-3.927
			c0-0.221-0.102-0.429-0.276-0.565C81.916,106.022,81.359,104.891,81.359,103.671z M90.378,120.229
			c0,2.767-2.266,5.017-5.051,5.017c-2.786,0-5.051-2.25-5.051-5.017v-3.584h1.443v3.584c0,1.977,1.62,3.585,3.608,3.585
			s3.607-1.608,3.607-3.585v-3.584h1.444V120.229L90.378,120.229z M83.163,120.229v-3.584h4.329v3.584
			c0,1.186-0.971,2.151-2.164,2.151C84.134,122.38,83.163,121.414,83.163,120.229z M93.805,115.211H76.85
			c-0.696,0-1.262-0.562-1.262-1.254c0-0.69,0.567-1.254,1.262-1.254h16.955c0.698,0,1.263,0.564,1.263,1.254
			C95.068,114.648,94.502,115.211,93.805,115.211z"/>
	</g>
</g>
<g>
	<g>
		<path fill="#5DD892" d="M123.152,111.269h-4.871v-3.592c1.151-1.021,1.805-2.462,1.805-4.005c0-2.965-2.428-5.377-5.412-5.377
			s-5.411,2.412-5.411,5.377c0,1.543,0.652,2.984,1.804,4.005v3.592h-4.871c-1.491,0-2.705,1.205-2.705,2.688
			c0,1.482,1.214,2.688,2.705,2.688h1.985v3.585c0,3.557,2.911,6.45,6.492,6.45s6.495-2.894,6.495-6.45v-3.585h1.981
			c1.492,0,2.705-1.205,2.705-2.688C125.854,112.474,124.645,111.269,123.152,111.269z M110.707,103.671
			c0-2.174,1.781-3.944,3.969-3.944c2.189,0,3.969,1.771,3.969,3.944c0,1.221-0.556,2.354-1.528,3.105
			c-0.172,0.137-0.276,0.345-0.276,0.565v3.927h-4.328v-3.927c0-0.221-0.103-0.429-0.277-0.565
			C111.263,106.024,110.707,104.892,110.707,103.671z M119.726,120.229c0,2.766-2.266,5.016-5.052,5.016
			c-2.784,0-5.051-2.25-5.051-5.016v-3.585h1.443v3.585c0,1.976,1.618,3.584,3.607,3.584s3.607-1.608,3.607-3.584v-3.585h1.444
			V120.229z M112.511,120.229v-3.585h4.328v3.585c0,1.185-0.972,2.15-2.163,2.15C113.481,122.38,112.511,121.414,112.511,120.229z
			 M123.152,115.211h-16.955c-0.697,0-1.261-0.562-1.261-1.254c0-0.69,0.566-1.254,1.261-1.254h16.955
			c0.697,0,1.262,0.564,1.262,1.254C124.416,114.648,123.85,115.211,123.152,115.211z"/>
	</g>
</g>
<g>
	<g>
		<path fill="#5DD892" d="M152.502,111.269h-4.872v-3.592c1.151-1.021,1.806-2.462,1.806-4.005c0-2.965-2.429-5.377-5.413-5.377
			c-2.983,0-5.41,2.412-5.41,5.377c0,1.543,0.652,2.984,1.804,4.005v3.592h-4.871c-1.491,0-2.706,1.205-2.706,2.688
			c0,1.482,1.215,2.688,2.706,2.688h1.983v3.585c0,3.557,2.912,6.45,6.493,6.45s6.494-2.894,6.494-6.45v-3.585h1.983
			c1.492,0,2.705-1.205,2.705-2.688C155.204,112.474,153.994,111.269,152.502,111.269z M140.055,103.671
			c0-2.174,1.781-3.944,3.969-3.944c2.189,0,3.97,1.771,3.97,3.944c0,1.221-0.556,2.354-1.528,3.105
			c-0.173,0.137-0.277,0.345-0.277,0.565v3.927h-4.328v-3.927c0-0.221-0.102-0.429-0.277-0.565
			C140.61,106.024,140.055,104.892,140.055,103.671z M149.075,120.229c0,2.766-2.266,5.016-5.053,5.016
			c-2.784,0-5.05-2.25-5.05-5.016v-3.585h1.443v3.585c0,1.976,1.618,3.584,3.606,3.584c1.989,0,3.607-1.608,3.607-3.584v-3.585
			h1.445V120.229L149.075,120.229z M141.858,120.229v-3.585h4.328v3.585c0,1.185-0.971,2.15-2.164,2.15
			C142.83,122.38,141.858,121.414,141.858,120.229z M152.502,115.211h-16.956c-0.696,0-1.262-0.562-1.262-1.254
			c0-0.69,0.566-1.254,1.262-1.254h16.956c0.696,0,1.262,0.564,1.262,1.254C153.764,114.648,153.198,115.211,152.502,115.211z"/>
	</g>
</g>
<g>
	<g>
		<path fill="#5DD892" d="M107.97,139.654h-4.872v-3.593c1.151-1.021,1.806-2.461,1.806-4.005c0-2.965-2.429-5.377-5.413-5.377
			c-2.983,0-5.41,2.412-5.41,5.377c0,1.544,0.652,2.984,1.803,4.005v3.593h-4.871c-1.491,0-2.706,1.204-2.706,2.688
			s1.214,2.688,2.706,2.688h1.984v3.585c0,3.557,2.912,6.45,6.493,6.45s6.494-2.894,6.494-6.45v-3.585h1.982
			c1.492,0,2.705-1.204,2.705-2.688S109.463,139.654,107.97,139.654z M95.524,132.057c0-2.176,1.781-3.943,3.969-3.943
			c2.189,0,3.969,1.77,3.969,3.943c0,1.221-0.556,2.353-1.528,3.106c-0.173,0.136-0.276,0.345-0.276,0.565v3.927h-4.329v-3.927
			c0-0.221-0.103-0.43-0.277-0.565C96.08,134.409,95.524,133.276,95.524,132.057z M104.543,148.614c0,2.767-2.266,5.017-5.052,5.017
			c-2.784,0-5.05-2.25-5.05-5.017v-3.585h1.443v3.585c0,1.977,1.619,3.584,3.607,3.584c1.989,0,3.607-1.607,3.607-3.584v-3.585
			h1.445V148.614z M97.328,148.614v-3.585h4.328v3.585c0,1.185-0.971,2.15-2.164,2.15C98.299,150.765,97.328,149.799,97.328,148.614
			z M107.97,143.596H91.014c-0.697,0-1.262-0.562-1.262-1.254c0-0.69,0.566-1.254,1.262-1.254h16.956
			c0.696,0,1.261,0.563,1.261,1.254C109.23,143.033,108.666,143.596,107.97,143.596z"/>
	</g>
</g>
</svg>
