<?xml version="1.0" encoding="utf-8"?>
<!-- Generator: Adobe Illustrator 16.0.4, SVG Export Plug-In . SVG Version: 6.00 Build 0)  -->
<!DOCTYPE svg PUBLIC "-//W3C//DTD SVG 1.1//EN" "http://www.w3.org/Graphics/SVG/1.1/DTD/svg11.dtd">
<svg version="1.1" id="Capa_1" xmlns="http://www.w3.org/2000/svg" xmlns:xlink="http://www.w3.org/1999/xlink" x="0px" y="0px"
	 width="200px" height="200px" viewBox="0 0 200 200" enable-background="new 0 0 200 200" xml:space="preserve">
<g>
	<path fill="#E5B076" d="M98.057,45.66c-2.094,0-3.796,1.636-3.796,3.66c0,2.019,1.698,3.654,3.795,3.654
		c2.085,0,3.78-1.635,3.78-3.654C101.84,47.296,100.144,45.66,98.057,45.66z M104.319,56.778c-0.927-1.835-2.369-2.947-5.904-2.947
		h-0.362h-0.361c-3.535,0-4.977,1.115-5.904,2.947c-0.467,0.915-1.443,12.385-1.443,12.385c-0.075,0.678,0.433,1.284,1.131,1.354
		c0.045,0.003,0.089,0.003,0.138,0.003c0.645,0,1.197-0.468,1.262-1.099l0.995-9.964l0.247,7.735L93.39,87.187
		c-0.053,0.789,0.562,1.478,1.38,1.527c0.044,0.006,0.077,0.006,0.104,0.006c0.78,0,1.433-0.577,1.492-1.334l1.688-16.466
		l1.684,16.466c0.064,0.757,0.717,1.334,1.499,1.334c0.03,0,0.061,0,0.105-0.006c0.813-0.051,1.429-0.739,1.376-1.527l-0.727-19.994
		l0.244-7.735l0.998,9.964c0.064,0.63,0.622,1.099,1.266,1.099c0.046,0,0.088,0,0.14-0.006c0.697-0.067,1.202-0.672,1.129-1.351
		C105.757,69.163,104.779,57.694,104.319,56.778z"/>
</g>
<g>
	<g>
		<path fill="#E5B076" d="M63.174,109.851h-4.849v-3.477c1.145-0.987,1.795-2.382,1.795-3.876c0-2.868-2.417-5.202-5.388-5.202
			c-2.969,0-5.386,2.334-5.386,5.202c0,1.494,0.651,2.889,1.795,3.876v3.477h-4.849c-1.485,0-2.693,1.165-2.693,2.601
			s1.208,2.601,2.693,2.601h1.975v3.47c0,3.44,2.899,6.241,6.464,6.241c3.563,0,6.464-2.801,6.464-6.241v-3.47h1.975
			c1.485,0,2.694-1.165,2.694-2.601S64.661,109.851,63.174,109.851z M50.784,102.498c0-2.104,1.772-3.815,3.951-3.815
			c2.179,0,3.951,1.711,3.951,3.815c0,1.182-0.552,2.277-1.52,3.005c-0.172,0.132-0.275,0.334-0.275,0.547v3.801H52.58v-3.801
			c0-0.213-0.102-0.415-0.275-0.547C51.338,104.775,50.784,103.68,50.784,102.498z M59.764,118.521c0,2.676-2.256,4.854-5.029,4.854
			c-2.773,0-5.029-2.178-5.029-4.854v-3.47h1.438v3.47c0,1.912,1.612,3.468,3.591,3.468c1.98,0,3.591-1.556,3.591-3.468v-3.47h1.438
			V118.521L59.764,118.521z M52.58,118.521v-3.47h4.31v3.47c0,1.146-0.968,2.08-2.154,2.08
			C53.549,120.602,52.58,119.667,52.58,118.521z M63.174,113.665H46.295c-0.693,0-1.256-0.545-1.256-1.214s0.564-1.214,1.256-1.214
			h16.879c0.694,0,1.255,0.545,1.255,1.214S63.868,113.665,63.174,113.665z"/>
	</g>
</g>
<g>
	<g>
		<path fill="#E5B076" d="M92.39,109.851h-4.848v-3.477c1.146-0.987,1.794-2.382,1.794-3.876c0-2.87-2.415-5.202-5.386-5.202
			s-5.388,2.333-5.388,5.202c0,1.494,0.651,2.889,1.795,3.876v3.477H75.51c-1.484,0-2.693,1.165-2.693,2.601
			c0,1.434,1.208,2.601,2.693,2.601h1.976v3.468c0,3.442,2.898,6.243,6.463,6.243s6.464-2.801,6.464-6.243v-3.468h1.974
			c1.486,0,2.695-1.167,2.695-2.601C95.085,111.016,93.876,109.851,92.39,109.851z M80,102.498c0-2.104,1.771-3.815,3.951-3.815
			c2.178,0,3.951,1.711,3.951,3.815c0,1.18-0.554,2.275-1.521,3.005c-0.172,0.132-0.274,0.334-0.274,0.547v3.801h-4.31v-3.801
			c0-0.213-0.102-0.415-0.275-0.547C80.556,104.773,80,103.678,80,102.498z M88.979,118.52c0,2.678-2.256,4.855-5.028,4.855
			c-2.773,0-5.028-2.178-5.028-4.855v-3.468h1.436v3.468c0,1.914,1.612,3.47,3.592,3.47s3.591-1.556,3.591-3.47v-3.468h1.437V118.52
			L88.979,118.52z M81.797,118.52v-3.468h4.309v3.468c0,1.147-0.967,2.082-2.154,2.082C82.762,120.602,81.797,119.667,81.797,118.52
			z M92.39,113.665H75.511c-0.693,0-1.256-0.545-1.256-1.214s0.565-1.214,1.256-1.214H92.39c0.694,0,1.258,0.545,1.258,1.214
			S93.083,113.665,92.39,113.665z"/>
	</g>
</g>
<g>
	<g>
		<path fill="#E5B076" d="M121.605,109.851h-4.849v-3.477c1.146-0.987,1.797-2.382,1.797-3.876c0-2.868-2.417-5.202-5.388-5.202
			s-5.387,2.334-5.387,5.202c0,1.494,0.649,2.889,1.796,3.876v3.477h-4.85c-1.484,0-2.693,1.165-2.693,2.601
			s1.209,2.601,2.693,2.601h1.976v3.47c0,3.44,2.898,6.241,6.463,6.241c3.565,0,6.466-2.801,6.466-6.241v-3.47h1.973
			c1.486,0,2.693-1.165,2.693-2.601S123.092,109.851,121.605,109.851z M109.216,102.498c0-2.104,1.773-3.815,3.951-3.815
			c2.18,0,3.951,1.711,3.951,3.815c0,1.182-0.553,2.277-1.521,3.005c-0.172,0.132-0.275,0.334-0.275,0.547v3.801h-4.309v-3.801
			c0-0.213-0.103-0.415-0.275-0.547C109.77,104.775,109.216,103.68,109.216,102.498z M118.195,118.521
			c0,2.676-2.257,4.854-5.029,4.854c-2.771,0-5.028-2.178-5.028-4.854v-3.47h1.438v3.47c0,1.912,1.61,3.468,3.591,3.468
			c1.979,0,3.591-1.556,3.591-3.468v-3.47h1.438V118.521z M111.012,118.521v-3.47h4.309v3.47c0,1.146-0.966,2.08-2.154,2.08
			C111.979,120.602,111.012,119.667,111.012,118.521z M121.605,113.665h-16.878c-0.694,0-1.256-0.545-1.256-1.214
			s0.563-1.214,1.256-1.214h16.878c0.694,0,1.257,0.545,1.257,1.214S122.3,113.665,121.605,113.665z"/>
	</g>
</g>
<g>
	<g>
		<path fill="#E5B076" d="M150.821,109.851h-4.849v-3.477c1.146-0.987,1.797-2.382,1.797-3.876c0-2.868-2.417-5.202-5.388-5.202
			s-5.387,2.334-5.387,5.202c0,1.494,0.649,2.889,1.796,3.876v3.477h-4.85c-1.485,0-2.693,1.165-2.693,2.601
			s1.208,2.601,2.693,2.601h1.975v3.47c0,3.44,2.899,6.241,6.464,6.241c3.565,0,6.466-2.801,6.466-6.241v-3.47h1.973
			c1.486,0,2.693-1.165,2.693-2.601S152.308,109.851,150.821,109.851z M138.432,102.498c0-2.104,1.773-3.815,3.951-3.815
			c2.18,0,3.951,1.711,3.951,3.815c0,1.182-0.553,2.277-1.521,3.005c-0.172,0.132-0.275,0.334-0.275,0.547v3.801h-4.309v-3.801
			c0-0.213-0.103-0.415-0.276-0.547C138.985,104.775,138.432,103.68,138.432,102.498z M147.411,118.521
			c0,2.676-2.257,4.854-5.029,4.854c-2.773,0-5.028-2.178-5.028-4.854v-3.47h1.438v3.47c0,1.912,1.61,3.468,3.591,3.468
			c1.979,0,3.591-1.556,3.591-3.468v-3.47h1.438V118.521L147.411,118.521z M140.228,118.521v-3.47h4.309v3.47
			c0,1.146-0.966,2.08-2.154,2.08C141.194,120.602,140.228,119.667,140.228,118.521z M150.821,113.665h-16.879
			c-0.693,0-1.256-0.545-1.256-1.214s0.563-1.214,1.256-1.214h16.879c0.694,0,1.257,0.545,1.257,1.214
			S151.516,113.665,150.821,113.665z"/>
	</g>
</g>
<g>
	<g>
		<path fill="#E5B076" d="M63.673,140.879h-4.849v-3.476c1.145-0.987,1.795-2.382,1.795-3.876c0-2.869-2.417-5.203-5.386-5.203
			c-2.97,0-5.387,2.334-5.387,5.203c0,1.494,0.651,2.889,1.795,3.876v3.476h-4.849c-1.486,0-2.693,1.166-2.693,2.602
			c0,1.435,1.207,2.601,2.693,2.601h1.975v3.469c0,3.441,2.9,6.241,6.464,6.241s6.465-2.8,6.465-6.241v-3.469h1.974
			c1.485,0,2.694-1.166,2.694-2.601C66.364,142.045,65.159,140.879,63.673,140.879z M51.284,133.527
			c0-2.104,1.772-3.815,3.951-3.815c2.178,0,3.951,1.712,3.951,3.815c0,1.182-0.553,2.276-1.52,3.005
			c-0.174,0.135-0.275,0.334-0.275,0.548v3.802h-4.31v-3.802c0-0.214-0.102-0.413-0.274-0.548
			C51.837,135.804,51.284,134.708,51.284,133.527z M60.262,149.55c0,2.677-2.255,4.854-5.028,4.854
			c-2.773,0-5.029-2.178-5.029-4.854v-3.469h1.438v3.469c0,1.912,1.612,3.468,3.592,3.468c1.979,0,3.591-1.556,3.591-3.468v-3.469
			h1.438V149.55z M53.079,149.55v-3.469h4.311v3.469c0,1.146-0.969,2.081-2.155,2.081C54.047,151.631,53.079,150.696,53.079,149.55z
			 M63.673,144.693H46.795c-0.694,0-1.257-0.544-1.257-1.213c0-0.67,0.564-1.214,1.257-1.214h16.878
			c0.693,0,1.256,0.544,1.256,1.214C64.93,144.149,64.367,144.693,63.673,144.693z"/>
	</g>
</g>
<g>
	<g>
		<path fill="#E5B076" d="M92.889,140.879h-4.849v-3.476c1.146-0.987,1.795-2.382,1.795-3.876c0-2.87-2.416-5.203-5.386-5.203
			s-5.386,2.333-5.386,5.203c0,1.494,0.649,2.889,1.795,3.876v3.476H76.01c-1.485,0-2.693,1.166-2.693,2.602
			c0,1.434,1.208,2.601,2.693,2.601h1.975v3.468c0,3.442,2.899,6.242,6.464,6.242c3.565,0,6.463-2.8,6.463-6.242v-3.468h1.974
			c1.486,0,2.695-1.167,2.695-2.601C95.584,142.045,94.375,140.879,92.889,140.879z M80.499,133.527
			c0-2.104,1.771-3.815,3.951-3.815c2.179,0,3.951,1.712,3.951,3.815c0,1.181-0.553,2.275-1.521,3.005
			c-0.171,0.135-0.274,0.334-0.274,0.548v3.802h-4.309v-3.802c0-0.214-0.102-0.413-0.275-0.548
			C81.054,135.803,80.499,134.707,80.499,133.527z M89.479,149.549c0,2.678-2.256,4.855-5.029,4.855
			c-2.773,0-5.028-2.178-5.028-4.855v-3.468h1.437v3.468c0,1.913,1.611,3.469,3.591,3.469s3.591-1.556,3.591-3.469v-3.468h1.438
			V149.549L89.479,149.549z M82.294,149.549v-3.468h4.309v3.468c0,1.147-0.967,2.082-2.154,2.082
			C83.261,151.631,82.294,150.696,82.294,149.549z M92.889,144.693H76.01c-0.693,0-1.256-0.544-1.256-1.213
			c0-0.67,0.564-1.214,1.256-1.214h16.878c0.695,0,1.257,0.544,1.257,1.214C94.146,144.149,93.583,144.693,92.889,144.693z"/>
	</g>
</g>
<g>
	<g>
		<path fill="#E5B076" d="M122.105,140.879h-4.851v-3.476c1.146-0.987,1.797-2.382,1.797-3.876c0-2.869-2.417-5.203-5.387-5.203
			c-2.971,0-5.386,2.334-5.386,5.203c0,1.494,0.649,2.889,1.795,3.876v3.476h-4.851c-1.484,0-2.692,1.166-2.692,2.602
			c0,1.435,1.208,2.601,2.692,2.601h1.976v3.469c0,3.441,2.898,6.241,6.464,6.241s6.465-2.8,6.465-6.241v-3.469h1.975
			c1.486,0,2.693-1.166,2.693-2.601C124.796,142.045,123.592,140.879,122.105,140.879z M109.716,133.527
			c0-2.104,1.772-3.815,3.95-3.815c2.18,0,3.951,1.712,3.951,3.815c0,1.182-0.554,2.276-1.521,3.005
			c-0.173,0.135-0.276,0.334-0.276,0.548v3.802h-4.309v-3.802c0-0.214-0.102-0.413-0.275-0.548
			C110.27,135.804,109.716,134.708,109.716,133.527z M118.694,149.55c0,2.677-2.256,4.854-5.029,4.854
			c-2.772,0-5.028-2.178-5.028-4.854v-3.469h1.438v3.469c0,1.912,1.611,3.468,3.591,3.468c1.979,0,3.59-1.556,3.59-3.468v-3.469
			h1.439V149.55z M111.511,149.55v-3.469h4.309v3.469c0,1.146-0.966,2.081-2.153,2.081
			C112.478,151.631,111.511,150.696,111.511,149.55z M122.105,144.693h-16.88c-0.693,0-1.256-0.544-1.256-1.213
			c0-0.67,0.563-1.214,1.256-1.214h16.88c0.693,0,1.255,0.544,1.255,1.214C123.36,144.149,122.799,144.693,122.105,144.693z"/>
	</g>
</g>
<g>
	<g>
		<path fill="#E5B076" d="M151.32,140.879h-4.85v-3.476c1.146-0.987,1.797-2.382,1.797-3.876c0-2.869-2.417-5.203-5.388-5.203
			s-5.387,2.334-5.387,5.203c0,1.494,0.649,2.889,1.796,3.876v3.476h-4.849c-1.485,0-2.693,1.166-2.693,2.602
			c0,1.435,1.208,2.601,2.693,2.601h1.975v3.469c0,3.441,2.898,6.241,6.464,6.241c3.564,0,6.465-2.8,6.465-6.241v-3.469h1.974
			c1.485,0,2.692-1.166,2.692-2.601C154.01,142.045,152.807,140.879,151.32,140.879z M138.932,133.527
			c0-2.104,1.772-3.815,3.95-3.815c2.18,0,3.951,1.712,3.951,3.815c0,1.182-0.554,2.276-1.522,3.005
			c-0.172,0.135-0.275,0.334-0.275,0.548v3.802h-4.308v-3.802c0-0.214-0.103-0.413-0.276-0.548
			C139.484,135.804,138.932,134.708,138.932,133.527z M147.91,149.55c0,2.677-2.256,4.854-5.03,4.854
			c-2.771,0-5.027-2.178-5.027-4.854v-3.469h1.437v3.469c0,1.912,1.611,3.468,3.591,3.468c1.98,0,3.591-1.556,3.591-3.468v-3.469
			h1.439V149.55L147.91,149.55z M140.728,149.55v-3.469h4.308v3.469c0,1.146-0.966,2.081-2.153,2.081
			S140.728,150.696,140.728,149.55z M151.32,144.693h-16.879c-0.693,0-1.257-0.544-1.257-1.213c0-0.67,0.564-1.214,1.257-1.214
			h16.879c0.694,0,1.256,0.544,1.256,1.214C152.576,144.149,152.015,144.693,151.32,144.693z"/>
	</g>
</g>
</svg>
